<mxfile host="app.diagrams.net" modified="2024-06-21T12:00:54.708Z" agent="Mozilla/5.0 (Windows NT 10.0; Win64; x64) AppleWebKit/537.36 (KHTML, like Gecko) Chrome/126.0.0.0 Safari/537.36 Edg/126.0.0.0" etag="T2_7wfCUJ_MkvC5omqik" version="24.6.0" type="device">
  <diagram name="Page-1" id="5d7acffa-a066-3a61-03fe-96351882024d">
    <mxGraphModel dx="1386" dy="785" grid="1" gridSize="10" guides="1" tooltips="1" connect="1" arrows="1" fold="1" page="1" pageScale="1" pageWidth="1100" pageHeight="850" background="#ffffff" math="0" shadow="0">
      <root>
        <mxCell id="0" />
        <mxCell id="1" parent="0" />
        <mxCell id="0zPFznAA2KUGZR9MFGcp-20" value="" style="edgeStyle=orthogonalEdgeStyle;rounded=0;orthogonalLoop=1;jettySize=auto;html=1;" edge="1" parent="1" source="0zPFznAA2KUGZR9MFGcp-1" target="0zPFznAA2KUGZR9MFGcp-15">
          <mxGeometry relative="1" as="geometry" />
        </mxCell>
        <mxCell id="0zPFznAA2KUGZR9MFGcp-1" value="&lt;b&gt;d&lt;/b&gt;&lt;div&gt;Distance to tower&lt;/div&gt;" style="html=1;rounded=0;shadow=0;comic=0;labelBackgroundColor=none;strokeWidth=2;fontFamily=Verdana;fontSize=12;align=center;shape=mxgraph.ios7ui.horLines;" vertex="1" parent="1">
          <mxGeometry x="70" y="40" width="135" height="50" as="geometry" />
        </mxCell>
        <mxCell id="0zPFznAA2KUGZR9MFGcp-21" value="" style="edgeStyle=orthogonalEdgeStyle;rounded=0;orthogonalLoop=1;jettySize=auto;html=1;" edge="1" parent="1" source="0zPFznAA2KUGZR9MFGcp-4" target="0zPFznAA2KUGZR9MFGcp-16">
          <mxGeometry relative="1" as="geometry" />
        </mxCell>
        <mxCell id="0zPFznAA2KUGZR9MFGcp-4" value="&lt;div&gt;&lt;b&gt;popcd&lt;/b&gt;&lt;/div&gt;Population centre&lt;div&gt;distance&lt;/div&gt;" style="html=1;rounded=0;shadow=0;comic=0;labelBackgroundColor=none;strokeWidth=2;fontFamily=Verdana;fontSize=12;align=center;shape=mxgraph.ios7ui.horLines;" vertex="1" parent="1">
          <mxGeometry x="70" y="160" width="135" height="50" as="geometry" />
        </mxCell>
        <mxCell id="0zPFznAA2KUGZR9MFGcp-22" value="" style="edgeStyle=orthogonalEdgeStyle;rounded=0;orthogonalLoop=1;jettySize=auto;html=1;" edge="1" parent="1" source="0zPFznAA2KUGZR9MFGcp-5" target="0zPFznAA2KUGZR9MFGcp-17">
          <mxGeometry relative="1" as="geometry" />
        </mxCell>
        <mxCell id="0zPFznAA2KUGZR9MFGcp-5" value="&lt;b&gt;udatavmonth&lt;/b&gt;&lt;br&gt;&lt;div&gt;Average user&lt;/div&gt;&lt;div&gt;bitrate in non-busy&lt;/div&gt;&lt;div&gt;hour&lt;/div&gt;" style="html=1;rounded=0;shadow=0;comic=0;labelBackgroundColor=none;strokeWidth=2;fontFamily=Verdana;fontSize=12;align=center;shape=mxgraph.ios7ui.horLines;" vertex="1" parent="1">
          <mxGeometry x="70" y="280" width="135" height="60" as="geometry" />
        </mxCell>
        <mxCell id="0zPFznAA2KUGZR9MFGcp-35" value="" style="edgeStyle=orthogonalEdgeStyle;rounded=0;orthogonalLoop=1;jettySize=auto;html=1;" edge="1" parent="1" source="0zPFznAA2KUGZR9MFGcp-6" target="0zPFznAA2KUGZR9MFGcp-18">
          <mxGeometry relative="1" as="geometry">
            <Array as="points">
              <mxPoint x="670" y="425" />
              <mxPoint x="670" y="365" />
            </Array>
          </mxGeometry>
        </mxCell>
        <mxCell id="0zPFznAA2KUGZR9MFGcp-6" value="&lt;div&gt;&lt;b&gt;pop&lt;/b&gt;&lt;/div&gt;&lt;div&gt;Population number&lt;/div&gt;" style="html=1;rounded=0;shadow=0;comic=0;labelBackgroundColor=none;strokeWidth=2;fontFamily=Verdana;fontSize=12;align=center;shape=mxgraph.ios7ui.horLines;" vertex="1" parent="1">
          <mxGeometry x="425" y="400" width="135" height="50" as="geometry" />
        </mxCell>
        <mxCell id="0zPFznAA2KUGZR9MFGcp-7" value="&lt;b&gt;Class attributes:&lt;br&gt;&lt;/b&gt;&lt;div&gt;country_name&lt;/div&gt;&lt;div&gt;bw&lt;/div&gt;&lt;div&gt;cco&lt;/div&gt;&lt;div&gt;cells_per_site&lt;/div&gt;&lt;div&gt;fb_per_site&lt;/div&gt;&lt;div&gt;angles_num&lt;/div&gt;&lt;div&gt;rotation_angle&lt;/div&gt;&lt;div&gt;opopshare&lt;/div&gt;&lt;div&gt;nonbhu&lt;/div&gt;&lt;div&gt;rb_num_multipier&lt;/div&gt;" style="whiteSpace=wrap;html=1;aspect=fixed;align=left;" vertex="1" parent="1">
          <mxGeometry x="70" y="520" width="170" height="170" as="geometry" />
        </mxCell>
        <mxCell id="0zPFznAA2KUGZR9MFGcp-11" value="" style="endArrow=none;html=1;rounded=0;" edge="1" parent="1">
          <mxGeometry width="50" height="50" relative="1" as="geometry">
            <mxPoint x="70" y="550" as="sourcePoint" />
            <mxPoint x="40" y="550" as="targetPoint" />
          </mxGeometry>
        </mxCell>
        <mxCell id="0zPFznAA2KUGZR9MFGcp-12" value="" style="endArrow=none;html=1;rounded=0;" edge="1" parent="1">
          <mxGeometry width="50" height="50" relative="1" as="geometry">
            <mxPoint x="40" y="550" as="sourcePoint" />
            <mxPoint x="40" y="300" as="targetPoint" />
          </mxGeometry>
        </mxCell>
        <mxCell id="0zPFznAA2KUGZR9MFGcp-13" value="" style="endArrow=classic;html=1;rounded=0;" edge="1" parent="1">
          <mxGeometry width="50" height="50" relative="1" as="geometry">
            <mxPoint x="40" y="300" as="sourcePoint" />
            <mxPoint x="70" y="300" as="targetPoint" />
          </mxGeometry>
        </mxCell>
        <mxCell id="0zPFznAA2KUGZR9MFGcp-26" value="" style="edgeStyle=orthogonalEdgeStyle;rounded=0;orthogonalLoop=1;jettySize=auto;html=1;" edge="1" parent="1" source="0zPFznAA2KUGZR9MFGcp-15" target="0zPFznAA2KUGZR9MFGcp-23">
          <mxGeometry relative="1" as="geometry" />
        </mxCell>
        <mxCell id="0zPFznAA2KUGZR9MFGcp-15" value="poidatareq" style="shape=process;whiteSpace=wrap;html=1;backgroundOutline=1;fillColor=#dae8fc;strokeColor=#6c8ebf;" vertex="1" parent="1">
          <mxGeometry x="258" y="40" width="120" height="50" as="geometry" />
        </mxCell>
        <mxCell id="0zPFznAA2KUGZR9MFGcp-27" value="" style="edgeStyle=orthogonalEdgeStyle;rounded=0;orthogonalLoop=1;jettySize=auto;html=1;" edge="1" parent="1" source="0zPFznAA2KUGZR9MFGcp-16" target="0zPFznAA2KUGZR9MFGcp-24">
          <mxGeometry relative="1" as="geometry" />
        </mxCell>
        <mxCell id="0zPFznAA2KUGZR9MFGcp-16" value="brrpopcd" style="shape=process;whiteSpace=wrap;html=1;backgroundOutline=1;fillColor=#dae8fc;strokeColor=#6c8ebf;" vertex="1" parent="1">
          <mxGeometry x="258" y="160" width="120" height="50" as="geometry" />
        </mxCell>
        <mxCell id="0zPFznAA2KUGZR9MFGcp-28" value="" style="edgeStyle=orthogonalEdgeStyle;rounded=0;orthogonalLoop=1;jettySize=auto;html=1;" edge="1" parent="1" source="0zPFznAA2KUGZR9MFGcp-17" target="0zPFznAA2KUGZR9MFGcp-25">
          <mxGeometry relative="1" as="geometry" />
        </mxCell>
        <mxCell id="0zPFznAA2KUGZR9MFGcp-17" value="avubrnonbh" style="shape=process;whiteSpace=wrap;html=1;backgroundOutline=1;fillColor=#dae8fc;strokeColor=#6c8ebf;" vertex="1" parent="1">
          <mxGeometry x="258" y="285" width="120" height="50" as="geometry" />
        </mxCell>
        <mxCell id="0zPFznAA2KUGZR9MFGcp-37" value="" style="edgeStyle=orthogonalEdgeStyle;rounded=0;orthogonalLoop=1;jettySize=auto;html=1;" edge="1" parent="1" source="0zPFznAA2KUGZR9MFGcp-18" target="0zPFznAA2KUGZR9MFGcp-36">
          <mxGeometry relative="1" as="geometry" />
        </mxCell>
        <mxCell id="0zPFznAA2KUGZR9MFGcp-18" value="upopbr" style="shape=process;whiteSpace=wrap;html=1;backgroundOutline=1;fillColor=#dae8fc;strokeColor=#6c8ebf;" vertex="1" parent="1">
          <mxGeometry x="598" y="340" width="120" height="50" as="geometry" />
        </mxCell>
        <mxCell id="0zPFznAA2KUGZR9MFGcp-23" value="&lt;b&gt;rbdltharg&lt;/b&gt;&lt;br&gt;&lt;div&gt;Required RBs&lt;/div&gt;" style="html=1;rounded=0;shadow=0;comic=0;labelBackgroundColor=none;strokeWidth=2;fontFamily=Verdana;fontSize=12;align=center;shape=mxgraph.ios7ui.horLines;" vertex="1" parent="1">
          <mxGeometry x="425" y="40" width="135" height="50" as="geometry" />
        </mxCell>
        <mxCell id="0zPFznAA2KUGZR9MFGcp-41" value="" style="edgeStyle=orthogonalEdgeStyle;rounded=0;orthogonalLoop=1;jettySize=auto;html=1;" edge="1" parent="1" source="0zPFznAA2KUGZR9MFGcp-24" target="0zPFznAA2KUGZR9MFGcp-38">
          <mxGeometry relative="1" as="geometry">
            <mxPoint x="650.5" y="185" as="targetPoint" />
          </mxGeometry>
        </mxCell>
        <mxCell id="0zPFznAA2KUGZR9MFGcp-24" value="&lt;div&gt;&lt;b&gt;brrpopcd&lt;/b&gt;&lt;/div&gt;&lt;div&gt;Bitrate per RB at&lt;/div&gt;&lt;div&gt;population centre&lt;/div&gt;&lt;div&gt;distance&lt;/div&gt;" style="html=1;rounded=0;shadow=0;comic=0;labelBackgroundColor=none;strokeWidth=2;fontFamily=Verdana;fontSize=12;align=center;shape=mxgraph.ios7ui.horLines;" vertex="1" parent="1">
          <mxGeometry x="428" y="155" width="135" height="60" as="geometry" />
        </mxCell>
        <mxCell id="0zPFznAA2KUGZR9MFGcp-33" value="" style="edgeStyle=orthogonalEdgeStyle;rounded=0;orthogonalLoop=1;jettySize=auto;html=1;" edge="1" parent="1" source="0zPFznAA2KUGZR9MFGcp-25" target="0zPFznAA2KUGZR9MFGcp-18">
          <mxGeometry relative="1" as="geometry">
            <Array as="points">
              <mxPoint x="670" y="310" />
              <mxPoint x="670" y="365" />
            </Array>
          </mxGeometry>
        </mxCell>
        <mxCell id="0zPFznAA2KUGZR9MFGcp-25" value="&lt;div&gt;&lt;span style=&quot;background-color: initial;&quot;&gt;&lt;b&gt;avubrnonbh&lt;/b&gt;&lt;/span&gt;&lt;/div&gt;&lt;div&gt;Average user bitrate&lt;/div&gt;&lt;div&gt;in non-busy hour&lt;/div&gt;&lt;div&gt;in kbps&lt;/div&gt;" style="html=1;rounded=0;shadow=0;comic=0;labelBackgroundColor=none;strokeWidth=2;fontFamily=Verdana;fontSize=12;align=center;shape=mxgraph.ios7ui.horLines;" vertex="1" parent="1">
          <mxGeometry x="425" y="280" width="135" height="60" as="geometry" />
        </mxCell>
        <mxCell id="0zPFznAA2KUGZR9MFGcp-39" value="" style="edgeStyle=orthogonalEdgeStyle;rounded=0;orthogonalLoop=1;jettySize=auto;html=1;" edge="1" parent="1" source="0zPFznAA2KUGZR9MFGcp-36" target="0zPFznAA2KUGZR9MFGcp-38">
          <mxGeometry relative="1" as="geometry" />
        </mxCell>
        <mxCell id="0zPFznAA2KUGZR9MFGcp-36" value="&lt;div&gt;&lt;span style=&quot;background-color: initial;&quot;&gt;&lt;b&gt;upopbr&lt;/b&gt;&lt;/span&gt;&lt;/div&gt;&lt;div&gt;&lt;span style=&quot;background-color: initial;&quot;&gt;User population&lt;/span&gt;&lt;/div&gt;&lt;div&gt;&lt;span style=&quot;background-color: initial;&quot;&gt;bitrate&lt;/span&gt;&lt;br&gt;&lt;/div&gt;" style="html=1;rounded=0;shadow=0;comic=0;labelBackgroundColor=none;strokeWidth=2;fontFamily=Verdana;fontSize=12;align=center;shape=mxgraph.ios7ui.horLines;" vertex="1" parent="1">
          <mxGeometry x="760" y="340" width="135" height="50" as="geometry" />
        </mxCell>
        <mxCell id="0zPFznAA2KUGZR9MFGcp-43" value="" style="edgeStyle=orthogonalEdgeStyle;rounded=0;orthogonalLoop=1;jettySize=auto;html=1;" edge="1" parent="1" source="0zPFznAA2KUGZR9MFGcp-38" target="0zPFznAA2KUGZR9MFGcp-42">
          <mxGeometry relative="1" as="geometry" />
        </mxCell>
        <mxCell id="0zPFznAA2KUGZR9MFGcp-38" value="upoprbu" style="shape=process;whiteSpace=wrap;html=1;backgroundOutline=1;fillColor=#dae8fc;strokeColor=#6c8ebf;" vertex="1" parent="1">
          <mxGeometry x="767.5" y="215" width="120" height="50" as="geometry" />
        </mxCell>
        <mxCell id="0zPFznAA2KUGZR9MFGcp-45" value="" style="edgeStyle=orthogonalEdgeStyle;rounded=0;orthogonalLoop=1;jettySize=auto;html=1;" edge="1" parent="1" source="0zPFznAA2KUGZR9MFGcp-42" target="0zPFznAA2KUGZR9MFGcp-44">
          <mxGeometry relative="1" as="geometry" />
        </mxCell>
        <mxCell id="0zPFznAA2KUGZR9MFGcp-42" value="&lt;div&gt;&lt;span style=&quot;background-color: initial;&quot;&gt;&lt;b&gt;upoprbu&lt;/b&gt;&lt;/span&gt;&lt;/div&gt;&lt;div&gt;User population&lt;/div&gt;&lt;div&gt;RB utilisation&lt;/div&gt;" style="html=1;rounded=0;shadow=0;comic=0;labelBackgroundColor=none;strokeWidth=2;fontFamily=Verdana;fontSize=12;align=center;shape=mxgraph.ios7ui.horLines;" vertex="1" parent="1">
          <mxGeometry x="760" y="120" width="135" height="50" as="geometry" />
        </mxCell>
        <mxCell id="0zPFznAA2KUGZR9MFGcp-44" value="sufcapcheck" style="shape=process;whiteSpace=wrap;html=1;backgroundOutline=1;fillColor=#dae8fc;strokeColor=#6c8ebf;" vertex="1" parent="1">
          <mxGeometry x="767.5" y="40" width="120" height="50" as="geometry" />
        </mxCell>
        <mxCell id="0zPFznAA2KUGZR9MFGcp-46" value="" style="endArrow=classic;html=1;rounded=0;exitX=1;exitY=0.5;exitDx=0;exitDy=0;exitPerimeter=0;" edge="1" parent="1" source="0zPFznAA2KUGZR9MFGcp-23" target="0zPFznAA2KUGZR9MFGcp-44">
          <mxGeometry width="50" height="50" relative="1" as="geometry">
            <mxPoint x="560" y="60" as="sourcePoint" />
            <mxPoint x="610" y="10" as="targetPoint" />
          </mxGeometry>
        </mxCell>
        <mxCell id="0zPFznAA2KUGZR9MFGcp-47" value="" style="edgeStyle=orthogonalEdgeStyle;rounded=0;orthogonalLoop=1;jettySize=auto;html=1;" edge="1" parent="1">
          <mxGeometry relative="1" as="geometry">
            <mxPoint x="887.5" y="64.5" as="sourcePoint" />
            <mxPoint x="937.5" y="64.5" as="targetPoint" />
          </mxGeometry>
        </mxCell>
        <mxCell id="0zPFznAA2KUGZR9MFGcp-48" value="&lt;div&gt;&lt;span style=&quot;background-color: initial;&quot;&gt;&lt;b&gt;sufcapcheck&lt;/b&gt;&lt;/span&gt;&lt;/div&gt;&lt;div&gt;&lt;span style=&quot;background-color: initial;&quot;&gt;Sufficient capacity&lt;/span&gt;&lt;br&gt;&lt;/div&gt;&lt;div&gt;(TRUE/FALSE)&lt;/div&gt;" style="html=1;rounded=0;shadow=0;comic=0;labelBackgroundColor=none;strokeWidth=2;fontFamily=Verdana;fontSize=12;align=center;shape=mxgraph.ios7ui.horLines;" vertex="1" parent="1">
          <mxGeometry x="950" y="40" width="135" height="50" as="geometry" />
        </mxCell>
      </root>
    </mxGraphModel>
  </diagram>
</mxfile>
